<?xml version="1.0" standalone="no"?><!-- Generator: Gravit.io --><svg xmlns="http://www.w3.org/2000/svg" xmlns:xlink="http://www.w3.org/1999/xlink" style="isolation:isolate" viewBox="0.472 17.724 947.528 600.276" width="947.528" height="600.276"><defs><clipPath id="_clipPath_PwQA8TQ154F8buln0KkDTFYFKJjpDjCp"><rect x="0.472" y="17.724" width="947.528" height="600.276"/></clipPath></defs><g clip-path="url(#_clipPath_PwQA8TQ154F8buln0KkDTFYFKJjpDjCp)"><rect x="0.472" y="17.724" width="947.528" height="600.276" style="fill:rgb(241,241,241)"/><rect x="0.472" y="17.724" width="947.528" height="600.276" transform="matrix(1,0,0,1,0,0)" fill="rgb(241,241,241)"/><ellipse vector-effect="non-scaling-stroke" cx="91.13806608130929" cy="104.57171648890574" rx="64.72769124511836" ry="64.42828351109424" fill="rgb(58,83,245)"/><rect x="15.259" y="34.901" width="143.018" height="69.671" transform="matrix(1,0,0,1,0,0)" fill="rgb(241,241,241)"/><rect x="26.474" y="17.889" width="23.811" height="76.632" transform="matrix(1,0.014,-0.014,1,0.779,-0.54)" fill="rgb(86,174,115)"/><ellipse vector-effect="non-scaling-stroke" cx="91.13806608130884" cy="106.88802576834334" rx="40.919125057655606" ry="37.7076702472188" fill="rgb(241,241,241)"/><rect x="0.635" y="44.106" width="75.49" height="24.2" transform="matrix(1,0.014,-0.014,1,0.779,-0.54)" fill="rgb(86,174,115)"/><rect x="91.138" y="44.176" width="64.728" height="24.197" transform="matrix(1,0,0,1,0,0)" fill="rgb(58,83,245)"/><rect x="132.057" y="65.147" width="23.809" height="43.555" transform="matrix(1,0,0,1,0,0)" fill="rgb(58,83,245)"/><rect x="30.248" y="87.544" width="15.311" height="29.398" transform="matrix(0,-1,1,0,-64.34,140.146)" fill="rgb(241,241,241)"/><path d=" M 10.482 431.36 L 48.702 431.36 C 70.152 431.36 81.332 422.39 81.332 405.36 L 81.332 404.84 C 81.332 392.36 74.832 385.47 62.742 383 C 73.142 380.01 77.822 372.86 77.822 363.11 L 77.822 362.59 C 77.822 346.73 67.292 338.41 47.012 338.41 L 10.482 338.41 L 10.482 431.36 Z  M 31.022 416.8 L 31.022 390.15 L 44.412 390.15 C 55.852 390.15 60.532 394.57 60.532 403.15 L 60.532 403.67 C 60.532 412.12 55.852 416.8 45.452 416.8 L 31.022 416.8 Z  M 31.022 376.63 L 31.022 352.84 L 43.502 352.84 C 53.382 352.84 57.802 356.35 57.802 364.15 L 57.802 364.67 C 57.802 372.99 53.772 376.63 43.632 376.63 L 31.022 376.63 Z  M 105.042 454.5 L 123.242 454.5 L 160.032 363.37 L 141.962 363.37 L 126.752 404.19 L 110.242 363.37 L 89.962 363.37 L 117.002 424.47 L 105.042 454.5 Z  M 172.172 454.5 L 191.022 454.5 L 191.022 420.96 C 194.532 427.59 202.202 432.79 212.732 432.79 C 229.632 432.79 242.372 420.18 242.372 397.69 L 242.372 396.65 C 242.372 374.16 229.372 361.81 212.732 361.81 C 202.722 361.81 194.792 367.53 191.022 374.03 L 191.022 363.37 L 172.172 363.37 L 172.172 454.5 Z  M 207.142 418.1 C 196.872 418.1 190.372 411.47 190.372 397.82 L 190.372 396.78 C 190.372 383.13 197.132 376.24 207.012 376.24 C 216.502 376.24 223.262 383 223.262 396.78 L 223.262 397.82 C 223.262 411.08 217.542 418.1 207.142 418.1 Z  M 275.312 432.79 C 285.972 432.79 291.952 428.63 295.852 423.17 L 295.852 431.36 L 314.182 431.36 L 314.182 387.03 C 314.182 368.57 302.352 361.81 285.712 361.81 C 269.072 361.81 256.332 368.96 255.162 385.08 L 272.972 385.08 C 273.752 379.23 277.132 375.46 284.542 375.46 C 293.122 375.46 295.592 379.88 295.592 387.94 L 295.592 390.67 L 287.922 390.67 C 267.122 390.67 252.562 396.65 252.562 412.51 C 252.562 426.81 262.962 432.79 275.312 432.79 Z  M 280.902 419.66 C 274.012 419.66 271.022 416.41 271.022 411.47 C 271.022 404.19 277.392 401.85 288.312 401.85 L 295.592 401.85 L 295.592 407.57 C 295.592 415.11 289.222 419.66 280.902 419.66 Z  M 357.002 432.79 C 374.942 432.79 385.602 425.12 385.602 410.43 C 385.602 395.87 376.242 391.58 359.212 389.11 C 349.332 387.68 346.082 385.99 346.082 381.7 C 346.082 377.54 349.592 374.68 355.702 374.68 C 362.202 374.68 365.322 377.28 366.362 382.87 L 383.652 382.87 C 381.962 367.27 370.652 361.81 355.572 361.81 C 341.662 361.81 328.662 368.83 328.662 383 C 328.662 396.26 335.682 401.46 353.752 404.19 C 363.502 405.62 367.532 407.57 367.532 412.25 C 367.532 416.93 364.152 419.66 356.872 419.66 C 348.682 419.66 345.692 416.15 344.912 410.04 L 327.362 410.04 C 328.012 424.73 338.672 432.79 357.002 432.79 Z  M 424.262 432.79 C 442.202 432.79 452.862 425.12 452.862 410.43 C 452.862 395.87 443.502 391.58 426.472 389.11 C 416.592 387.68 413.342 385.99 413.342 381.7 C 413.342 377.54 416.852 374.68 422.962 374.68 C 429.462 374.68 432.582 377.28 433.622 382.87 L 450.912 382.87 C 449.222 367.27 437.912 361.81 422.832 361.81 C 408.922 361.81 395.922 368.83 395.922 383 C 395.922 396.26 402.942 401.46 421.012 404.19 C 430.762 405.62 434.792 407.57 434.792 412.25 C 434.792 416.93 431.412 419.66 424.132 419.66 C 415.942 419.66 412.952 416.15 412.172 410.04 L 394.622 410.04 C 395.272 424.73 405.932 432.79 424.262 432.79 Z  M 498.152 432.79 C 516.742 432.79 528.442 424.6 530.652 409.91 L 512.842 409.91 C 511.672 415.63 507.382 419.4 498.672 419.4 C 488.402 419.4 482.292 412.9 481.772 401.59 L 530.782 401.59 L 530.782 396.39 C 530.782 372.08 515.182 361.81 497.632 361.81 C 477.872 361.81 462.662 375.72 462.662 397.17 L 462.662 398.21 C 462.662 419.92 477.612 432.79 498.152 432.79 Z  M 482.032 390.02 C 483.462 380.4 489.182 374.81 497.632 374.81 C 506.602 374.81 511.802 379.75 512.452 390.02 L 482.032 390.02 Z  M 545.132 431.36 L 563.982 431.36 L 563.982 397.3 C 563.982 384.3 572.042 379.75 585.952 379.88 L 585.952 362.33 C 574.902 362.46 568.272 367.27 563.982 376.37 L 563.982 363.37 L 545.132 363.37 L 545.132 431.36 Z  M 10.482 320.86 L 31.542 320.86 L 31.542 284.85 L 62.092 284.85 L 62.092 268.99 L 31.542 268.99 L 31.542 244.42 L 70.152 244.42 L 70.152 227.91 L 10.482 227.91 L 10.482 320.86 Z  M 85.022 320.86 L 103.742 320.86 L 103.742 252.87 L 85.022 252.87 L 85.022 320.86 Z  M 94.252 243.64 C 100.362 243.64 105.042 239.22 105.042 233.37 C 105.042 227.52 100.362 223.1 94.252 223.1 C 88.272 223.1 83.592 227.52 83.592 233.37 C 83.592 239.22 88.272 243.64 94.252 243.64 Z  M 123.032 320.86 L 141.882 320.86 L 141.882 286.8 C 141.882 273.8 149.942 269.25 163.852 269.38 L 163.852 251.83 C 152.802 251.96 146.172 256.77 141.882 265.87 L 141.882 252.87 L 123.032 252.87 L 123.032 320.86 Z  M 209.532 322.29 C 228.122 322.29 239.822 314.1 242.032 299.41 L 224.222 299.41 C 223.052 305.13 218.762 308.9 210.052 308.9 C 199.782 308.9 193.672 302.4 193.152 291.09 L 242.162 291.09 L 242.162 285.89 C 242.162 261.58 226.562 251.31 209.012 251.31 C 189.252 251.31 174.042 265.22 174.042 286.67 L 174.042 287.71 C 174.042 309.42 188.992 322.29 209.532 322.29 Z  M 193.412 279.52 C 194.842 269.9 200.562 264.31 209.012 264.31 C 217.982 264.31 223.182 269.25 223.832 279.52 L 193.412 279.52 Z  M 270.942 320.86 L 289.662 320.86 L 302.142 278.22 L 313.712 320.86 L 332.172 320.86 L 353.622 252.87 L 335.552 252.87 L 322.682 298.63 L 310.722 252.87 L 295.252 252.87 L 282.122 298.63 L 270.032 252.87 L 250.272 252.87 L 270.942 320.86 Z  M 384.222 322.29 C 394.882 322.29 400.862 318.13 404.762 312.67 L 404.762 320.86 L 423.092 320.86 L 423.092 276.53 C 423.092 258.07 411.262 251.31 394.622 251.31 C 377.982 251.31 365.242 258.46 364.072 274.58 L 381.882 274.58 C 382.662 268.73 386.042 264.96 393.452 264.96 C 402.032 264.96 404.502 269.38 404.502 277.44 L 404.502 280.17 L 396.832 280.17 C 376.032 280.17 361.472 286.15 361.472 302.01 C 361.472 316.31 371.872 322.29 384.222 322.29 Z  M 389.812 309.16 C 382.922 309.16 379.932 305.91 379.932 300.97 C 379.932 293.69 386.302 291.35 397.222 291.35 L 404.502 291.35 L 404.502 297.07 C 404.502 304.61 398.132 309.16 389.812 309.16 Z  M 441.732 320.86 L 460.452 320.86 L 460.452 222.06 L 441.732 222.06 L 441.732 320.86 Z  M 480.132 320.86 L 498.852 320.86 L 498.852 222.06 L 480.132 222.06 L 480.132 320.86 Z " fill-rule="evenodd" fill="rgb(58,83,245)"/><rect x="0.472" y="615" width="947.528" height="3" transform="matrix(1,0,0,1,0,0)" fill="rgb(58,83,245)"/></g></svg>