<?xml version="1.0" standalone="no"?><!-- Generator: Gravit.io --><svg xmlns="http://www.w3.org/2000/svg" xmlns:xlink="http://www.w3.org/1999/xlink" style="isolation:isolate" viewBox="0.472 17.724 947.528 600.276" width="947.528" height="600.276"><defs><clipPath id="_clipPath_MrJvdIBsVslyTLYe1ldhsnfSQrRHSC22"><rect x="0.472" y="17.724" width="947.528" height="600.276"/></clipPath></defs><g clip-path="url(#_clipPath_MrJvdIBsVslyTLYe1ldhsnfSQrRHSC22)"><rect x="0.472" y="17.724" width="947.528" height="600.276" style="fill:rgb(241,241,241)"/><rect x="0.472" y="17.724" width="947.528" height="600.276" transform="matrix(1,0,0,1,0,0)" fill="rgb(241,241,241)"/><ellipse vector-effect="non-scaling-stroke" cx="91.13806608130929" cy="104.57171648890574" rx="64.72769124511836" ry="64.42828351109424" fill="rgb(58,83,245)"/><rect x="15.259" y="34.901" width="143.018" height="69.671" transform="matrix(1,0,0,1,0,0)" fill="rgb(241,241,241)"/><rect x="26.474" y="17.889" width="23.811" height="76.632" transform="matrix(1,0.014,-0.014,1,0.779,-0.54)" fill="rgb(86,174,115)"/><ellipse vector-effect="non-scaling-stroke" cx="91.13806608130884" cy="106.88802576834334" rx="40.919125057655606" ry="37.7076702472188" fill="rgb(241,241,241)"/><rect x="0.635" y="44.106" width="75.49" height="24.2" transform="matrix(1,0.014,-0.014,1,0.779,-0.54)" fill="rgb(86,174,115)"/><rect x="91.138" y="44.176" width="64.728" height="24.197" transform="matrix(1,0,0,1,0,0)" fill="rgb(58,83,245)"/><rect x="132.057" y="65.147" width="23.809" height="43.555" transform="matrix(1,0,0,1,0,0)" fill="rgb(58,83,245)"/><rect x="30.248" y="87.544" width="15.311" height="29.398" transform="matrix(0,-1,1,0,-64.34,140.146)" fill="rgb(241,241,241)"/><path d=" M 180.259 444.8 L 153.459 444.8 L 153.459 444.8 Q 130.659 444.8 130.659 418.6 L 130.659 418.6 L 130.659 261.6 L 151.859 261.6 L 151.859 414.4 L 151.859 414.4 Q 151.859 425.6 159.859 425.6 L 159.859 425.6 L 176.659 425.6 L 176.659 425.6 Q 181.859 425.6 184.659 420.6 L 184.659 420.6 L 184.659 420.6 Q 187.659 415.2 188.859 388 L 188.859 388 L 208.859 394.4 L 208.859 394.4 Q 206.059 431.4 199.659 438.2 L 199.659 438.2 L 199.659 438.2 Q 193.459 444.8 180.259 444.8 L 180.259 444.8 L 180.259 444.8 Z  M 30.059 286.4 L 30.059 267.2 L 113.059 267.2 L 113.059 285.2 L 113.059 285.2 Q 105.659 300.2 88.459 322.4 L 88.459 322.4 L 88.459 346.6 L 88.459 346.6 Q 103.659 343 116.259 339.4 L 116.259 339.4 L 116.259 360.2 L 88.459 367.4 L 88.459 424.4 L 88.459 424.4 Q 88.459 445.6 64.059 445.6 L 64.059 445.6 L 41.659 445.6 L 36.459 425.6 L 36.459 425.6 Q 54.259 427 57.659 427 L 57.659 427 L 57.659 427 Q 67.859 427 67.859 418.8 L 67.859 418.8 L 67.859 372.2 L 67.859 372.2 Q 54.059 375.2 28.459 379.8 L 28.459 379.8 L 22.859 357.8 L 22.859 357.8 Q 47.059 355 67.859 351 L 67.859 351 L 67.859 315.4 L 67.859 315.4 Q 79.259 302 89.259 286.4 L 89.259 286.4 L 30.059 286.4 L 30.059 286.4 Z " fill-rule="evenodd" fill="rgb(58,83,245)"/><rect x="0.472" y="615" width="947.528" height="3" transform="matrix(1,0,0,1,0,0)" fill="rgb(58,83,245)"/></g></svg>